Coordinates
version=1
nRows=9
nColumns=36
inDegrees=yes

Units are S.I. units (second, meters, Newtons, ...)
If the header above contains a line with 'inDegrees', this indicates whether rotational values are in degrees (yes) or radians (no).

endheader
time	pelvis_tilt	pelvis_list	pelvis_rotation	pelvis_tx	pelvis_ty	pelvis_tz	hip_flexion_r	hip_adduction_r	hip_rotation_r	knee_angle_r	knee_angle_r_beta	ankle_angle_r	subtalar_angle_r	mtp_angle_r	hip_flexion_l	hip_adduction_l	hip_rotation_l	knee_angle_l	knee_angle_l_beta	ankle_angle_l	subtalar_angle_l	mtp_angle_l	lumbar_extension	lumbar_bending	lumbar_rotation	arm_flex_r	arm_add_r	arm_rot_r	elbow_flex_r	pro_sup_r	arm_flex_l	arm_add_l	arm_rot_l	elbow_flex_l	pro_sup_l
      0.79000000	     11.17068176	      0.03138973	     -0.02189481	      0.78476068	      1.14525020	     -0.20327556	    -14.79499278	      1.95087659	     -2.00238802	     42.90839784	      0.74889282	    -14.42616549	    -15.53648138	     -7.49912573	      4.76480830	      4.13588330	      0.17008507	     15.02606745	      0.26225435	     -1.24286650	    -10.84649652	     -7.49912573	    -21.53726594	      0.01394874	     -4.85215091	     -4.26458417	     -9.22850161	     -4.36510439	     30.90006086	     76.98880239	     -6.32168975	    -11.98845795	    -11.69315843	     30.56656204	     72.91489725
      0.80000000	     11.11534686	     -0.02786485	     -0.23414959	      0.79390546	      1.14606993	     -0.20408277	    -12.96997532	      1.75627698	     -2.12258551	     46.03492126	      0.80346095	    -15.36427966	    -15.73020489	     -7.49913209	      3.97693285	      4.11019277	     -0.17403569	     14.46497134	      0.25246138	     -0.52695277	    -10.47575015	     -7.49913209	    -21.60307833	     -0.09668385	     -4.84505166	     -4.33918773	     -9.19660613	     -4.05064629	     30.50830339	     76.50719937	     -6.27157094	    -12.08105226	    -11.42013113	     30.64498451	     72.58621678
      0.81000000	     11.10040163	     -0.08956113	     -0.39207090	      0.80348281	      1.14676380	     -0.20507223	    -11.24302496	      1.58904494	     -2.26474111	     48.88314238	      0.85317178	    -15.89499737	    -15.80806219	     -7.49916882	      3.13688530	      4.10160589	     -0.41099732	     13.86372444	      0.24196764	      0.12805592	    -10.18821024	     -7.49916882	    -21.73585608	     -0.15848943	     -5.13520361	     -4.20629148	     -9.26251251	     -3.25579778	     30.07188246	     76.42883153	     -6.48800803	    -12.14440354	    -11.36939952	     31.02752749	     72.68072721
      0.82000000	     11.13778289	     -0.20412941	     -0.53876875	      0.81351607	      1.14751923	     -0.20608635	     -9.63636353	      1.53210599	     -2.30819208	     51.42551823	      0.89754461	    -16.08197133	    -15.84421897	     -7.49924457	      2.25381882	      4.04018710	     -0.65313048	     13.27895042	      0.23176141	      0.92936644	     -9.71864523	     -7.49924457	    -21.95623740	     -0.17300226	     -5.43073396	     -3.97132486	     -9.33085871	     -2.33267782	     29.53537234	     76.37188911	     -6.70683676	    -12.13071615	    -11.74796915	     31.47156798	     72.93140770
      0.83000000	     11.22122435	     -0.33699411	     -0.69094210	      0.82409060	      1.14848168	     -0.20713735	     -8.17813640	      1.51736087	     -2.29953222	     53.62910961	      0.93600454	    -15.84048751	    -15.86362933	     -7.49925933	      1.33549940	      3.96497487	     -0.90025366	     12.72829932	      0.22215073	      1.63754898	     -9.38793887	     -7.49925933	    -22.21824835	     -0.12447198	     -5.48733920	     -4.06740905	     -9.34170045	     -2.25462279	     29.45856079	     76.33184906	     -6.69576045	    -12.11396886	    -11.81370139	     31.64047941	     72.94382982
      0.84000000	     11.32821005	     -0.62129067	     -0.65134180	      0.83487051	      1.14978676	     -0.20865801	     -6.85508997	      1.70419650	     -2.41329884	     55.43941252	      0.96760028	    -15.52946351	    -15.97435071	     -7.49926685	      0.41320312	      3.76677532	     -0.74199784	     12.20279271	      0.21297891	      2.21148161	     -9.16275505	     -7.49926685	    -22.51928734	      0.21757092	     -5.56960793	     -4.11530897	     -9.43854764	     -2.21759474	     29.41503395	     76.28664468	     -6.61454160	    -12.00840840	    -11.80122124	     31.78526966	     72.93017580
      0.85000000	     11.34131875	     -0.70204159	     -0.99321170	      0.84613804	      1.15107576	     -0.20928632	     -5.41063852	      1.67601605	     -2.10078611	     57.19405191	      0.99822452	    -14.32985254	    -15.60563852	     -7.49937880	     -0.44427480	      3.69466426	     -1.62072425	     11.66748018	      0.20363594	      3.48343506	     -7.67210925	     -7.49937880	    -22.52139783	      0.06951708	     -5.99436834	     -3.50077980	     -9.65082454	     -0.12511285	     28.15692610	     76.74072308	     -7.18178546	    -11.89177247	    -12.85221438	     32.25812390	     74.14177944
      0.86000000	     11.46626719	     -0.99858153	     -0.92864450	      0.85725040	      1.15274185	     -0.21075539	     -4.26928360	      1.92579417	     -2.13946308	     58.43629077	      1.01990568	    -13.72403859	    -15.91873710	     -7.49938196	     -1.38713203	      3.48707146	     -1.40682701	     11.15918284	      0.19476448	      3.93776413	     -7.57763887	     -7.49938196	    -22.74185932	      0.40214995	     -6.09775257	     -3.60792354	     -9.74215326	     -0.12719000	     28.09785303	     76.70687216	     -7.13541046	    -11.79040090	    -12.83765456	     32.30816984	     74.14222112
      0.87000000	     11.38518614	     -1.10393633	     -1.18938694	      0.86839284	      1.15397934	     -0.21160834	     -2.83422690	      1.93251058	     -1.86377624	     59.73445216	      1.04256287	    -11.95444161	    -15.39898614	     -7.49939941	     -2.14999238	      3.44235387	     -1.92483316	     10.60160926	      0.18503299	      4.84909091	     -6.70236256	     -7.49939941	    -22.65547463	      0.38476361	     -5.92832313	     -3.78147798	     -9.85651785	      0.13163824	     28.02923988	     76.60021031	     -7.25257652	    -11.72950341	    -12.87030108	     32.54277195	     74.16395412
